<mxfile host="app.diagrams.net" agent="Mozilla/5.0 (Windows NT 10.0; Win64; x64) AppleWebKit/537.36 (KHTML, like Gecko) Chrome/135.0.0.0 Safari/537.36" scale="1" border="0" version="27.0.1">
  <diagram name="Page-1" id="fc2ac565-0d4e-3f0d-88b0-a54af1634ed7">
    <mxGraphModel dx="3027" dy="2605.5" grid="1" gridSize="10" guides="1" tooltips="1" connect="0" arrows="1" fold="1" page="1" pageScale="1.5" pageWidth="1169" pageHeight="827" background="none" math="0" shadow="0">
      <root>
        <mxCell id="0" style=";html=1;" />
        <mxCell id="1" style=";html=1;" parent="0" />
        <mxCell id="ASKlcWjWhNQtN-ibi5Y6-100" value="" style="endArrow=none;html=1;rounded=0;exitX=0.502;exitY=-0.064;exitDx=0;exitDy=0;exitPerimeter=0;" parent="1" source="ASKlcWjWhNQtN-ibi5Y6-109" edge="1">
          <mxGeometry width="50" height="50" relative="1" as="geometry">
            <mxPoint x="600" y="760" as="sourcePoint" />
            <mxPoint x="600" y="80" as="targetPoint" />
          </mxGeometry>
        </mxCell>
        <mxCell id="ASKlcWjWhNQtN-ibi5Y6-102" value="" style="endArrow=none;html=1;rounded=0;exitX=0.502;exitY=0.047;exitDx=0;exitDy=0;exitPerimeter=0;" parent="1" source="ASKlcWjWhNQtN-ibi5Y6-111" edge="1">
          <mxGeometry width="50" height="50" relative="1" as="geometry">
            <mxPoint x="840" y="760" as="sourcePoint" />
            <mxPoint x="840" y="80" as="targetPoint" />
          </mxGeometry>
        </mxCell>
        <mxCell id="ASKlcWjWhNQtN-ibi5Y6-103" value="" style="endArrow=none;html=1;rounded=0;exitX=0.502;exitY=0.047;exitDx=0;exitDy=0;exitPerimeter=0;" parent="1" source="ASKlcWjWhNQtN-ibi5Y6-112" edge="1">
          <mxGeometry width="50" height="50" relative="1" as="geometry">
            <mxPoint x="960" y="760" as="sourcePoint" />
            <mxPoint x="960" y="80" as="targetPoint" />
          </mxGeometry>
        </mxCell>
        <mxCell id="ASKlcWjWhNQtN-ibi5Y6-104" value="" style="endArrow=none;html=1;rounded=0;exitX=0.502;exitY=0.047;exitDx=0;exitDy=0;exitPerimeter=0;" parent="1" source="ASKlcWjWhNQtN-ibi5Y6-113" edge="1">
          <mxGeometry width="50" height="50" relative="1" as="geometry">
            <mxPoint x="1080" y="760" as="sourcePoint" />
            <mxPoint x="1080" y="80" as="targetPoint" />
          </mxGeometry>
        </mxCell>
        <mxCell id="ASKlcWjWhNQtN-ibi5Y6-105" value="" style="endArrow=none;html=1;rounded=0;exitX=0.502;exitY=0.047;exitDx=0;exitDy=0;exitPerimeter=0;" parent="1" source="ASKlcWjWhNQtN-ibi5Y6-114" edge="1">
          <mxGeometry width="50" height="50" relative="1" as="geometry">
            <mxPoint x="1200" y="760" as="sourcePoint" />
            <mxPoint x="1200" y="80" as="targetPoint" />
          </mxGeometry>
        </mxCell>
        <mxCell id="ASKlcWjWhNQtN-ibi5Y6-106" value="" style="endArrow=none;html=1;rounded=0;exitX=0.513;exitY=0.042;exitDx=0;exitDy=0;exitPerimeter=0;" parent="1" source="ASKlcWjWhNQtN-ibi5Y6-115" edge="1">
          <mxGeometry width="50" height="50" relative="1" as="geometry">
            <mxPoint x="590" y="920.5" as="sourcePoint" />
            <mxPoint x="590" y="640.5" as="targetPoint" />
          </mxGeometry>
        </mxCell>
        <mxCell id="ASKlcWjWhNQtN-ibi5Y6-107" value="" style="endArrow=none;html=1;rounded=0;exitX=0.497;exitY=0.042;exitDx=0;exitDy=0;exitPerimeter=0;" parent="1" source="ASKlcWjWhNQtN-ibi5Y6-116" edge="1">
          <mxGeometry width="50" height="50" relative="1" as="geometry">
            <mxPoint x="710" y="920.5" as="sourcePoint" />
            <mxPoint x="710" y="640.5" as="targetPoint" />
          </mxGeometry>
        </mxCell>
        <mxCell id="ASKlcWjWhNQtN-ibi5Y6-108" value="COMP5530 Gantt Chart" style="text;strokeColor=none;fillColor=none;html=1;fontSize=24;fontStyle=1;verticalAlign=middle;align=center;" parent="1" vertex="1">
          <mxGeometry x="470" y="31" width="400" height="40" as="geometry" />
        </mxCell>
        <mxCell id="ASKlcWjWhNQtN-ibi5Y6-109" value="&lt;p&gt;&lt;font style=&quot;color: rgb(128, 128, 128);&quot; size=&quot;3&quot;&gt;2025-02-02&lt;/font&gt;&lt;/p&gt;" style="text;strokeColor=none;fillColor=none;html=1;fontSize=24;fontStyle=1;verticalAlign=middle;align=center;" parent="1" vertex="1">
          <mxGeometry x="550" y="545" width="100" height="40" as="geometry" />
        </mxCell>
        <mxCell id="ASKlcWjWhNQtN-ibi5Y6-110" value="&lt;font style=&quot;color: rgb(128, 128, 128);&quot; size=&quot;3&quot;&gt;2025-02-09&lt;/font&gt;" style="text;strokeColor=none;fillColor=none;html=1;fontSize=24;fontStyle=1;verticalAlign=middle;align=center;" parent="1" vertex="1">
          <mxGeometry x="670" y="545" width="100" height="40" as="geometry" />
        </mxCell>
        <mxCell id="ASKlcWjWhNQtN-ibi5Y6-111" value="&lt;font style=&quot;color: rgb(128, 128, 128);&quot; size=&quot;3&quot;&gt;2025-02-16&lt;/font&gt;" style="text;strokeColor=none;fillColor=none;html=1;fontSize=24;fontStyle=1;verticalAlign=middle;align=center;" parent="1" vertex="1">
          <mxGeometry x="790" y="545" width="100" height="40" as="geometry" />
        </mxCell>
        <mxCell id="ASKlcWjWhNQtN-ibi5Y6-112" value="&lt;font style=&quot;color: rgb(128, 128, 128);&quot; size=&quot;3&quot;&gt;2025-02-23&lt;/font&gt;" style="text;strokeColor=none;fillColor=none;html=1;fontSize=24;fontStyle=1;verticalAlign=middle;align=center;" parent="1" vertex="1">
          <mxGeometry x="910" y="545" width="100" height="40" as="geometry" />
        </mxCell>
        <mxCell id="ASKlcWjWhNQtN-ibi5Y6-113" value="&lt;font style=&quot;color: rgb(128, 128, 128);&quot; size=&quot;3&quot;&gt;2025-03-02&lt;/font&gt;" style="text;strokeColor=none;fillColor=none;html=1;fontSize=24;fontStyle=1;verticalAlign=middle;align=center;" parent="1" vertex="1">
          <mxGeometry x="1030" y="545" width="100" height="40" as="geometry" />
        </mxCell>
        <mxCell id="ASKlcWjWhNQtN-ibi5Y6-114" value="&lt;font style=&quot;color: rgb(128, 128, 128);&quot; size=&quot;3&quot;&gt;2025-03-09&lt;/font&gt;" style="text;strokeColor=none;fillColor=none;html=1;fontSize=24;fontStyle=1;verticalAlign=middle;align=center;" parent="1" vertex="1">
          <mxGeometry x="1150" y="545" width="100" height="40" as="geometry" />
        </mxCell>
        <mxCell id="ASKlcWjWhNQtN-ibi5Y6-115" value="&lt;font style=&quot;color: rgb(128, 128, 128);&quot; size=&quot;3&quot;&gt;2025-03-16&lt;/font&gt;" style="text;strokeColor=none;fillColor=none;html=1;fontSize=24;fontStyle=1;verticalAlign=middle;align=center;" parent="1" vertex="1">
          <mxGeometry x="540" y="1200.5" width="100" height="40" as="geometry" />
        </mxCell>
        <mxCell id="ASKlcWjWhNQtN-ibi5Y6-116" value="&lt;font style=&quot;color: rgb(128, 128, 128);&quot; size=&quot;3&quot;&gt;2025-03-23&lt;/font&gt;" style="text;strokeColor=none;fillColor=none;html=1;fontSize=24;fontStyle=1;verticalAlign=middle;align=center;" parent="1" vertex="1">
          <mxGeometry x="660" y="1200.5" width="100" height="40" as="geometry" />
        </mxCell>
        <mxCell id="ASKlcWjWhNQtN-ibi5Y6-117" value="" style="endArrow=none;html=1;rounded=0;exitX=0.497;exitY=0.042;exitDx=0;exitDy=0;exitPerimeter=0;" parent="1" source="ASKlcWjWhNQtN-ibi5Y6-123" edge="1">
          <mxGeometry width="50" height="50" relative="1" as="geometry">
            <mxPoint x="830" y="920.5" as="sourcePoint" />
            <mxPoint x="830" y="640.5" as="targetPoint" />
          </mxGeometry>
        </mxCell>
        <mxCell id="ASKlcWjWhNQtN-ibi5Y6-118" value="" style="endArrow=none;html=1;rounded=0;exitX=0.497;exitY=0.042;exitDx=0;exitDy=0;exitPerimeter=0;" parent="1" source="ASKlcWjWhNQtN-ibi5Y6-124" edge="1">
          <mxGeometry width="50" height="50" relative="1" as="geometry">
            <mxPoint x="950" y="920.5" as="sourcePoint" />
            <mxPoint x="950" y="640.5" as="targetPoint" />
          </mxGeometry>
        </mxCell>
        <mxCell id="ASKlcWjWhNQtN-ibi5Y6-119" value="" style="endArrow=none;html=1;rounded=0;exitX=0.497;exitY=0.042;exitDx=0;exitDy=0;exitPerimeter=0;" parent="1" source="ASKlcWjWhNQtN-ibi5Y6-125" edge="1">
          <mxGeometry width="50" height="50" relative="1" as="geometry">
            <mxPoint x="1070" y="920.5" as="sourcePoint" />
            <mxPoint x="1070" y="640.5" as="targetPoint" />
          </mxGeometry>
        </mxCell>
        <mxCell id="ASKlcWjWhNQtN-ibi5Y6-120" value="" style="endArrow=none;html=1;rounded=0;exitX=0.497;exitY=0.042;exitDx=0;exitDy=0;exitPerimeter=0;" parent="1" source="ASKlcWjWhNQtN-ibi5Y6-126" edge="1">
          <mxGeometry width="50" height="50" relative="1" as="geometry">
            <mxPoint x="1190" y="920.5" as="sourcePoint" />
            <mxPoint x="1190" y="640.5" as="targetPoint" />
          </mxGeometry>
        </mxCell>
        <mxCell id="ASKlcWjWhNQtN-ibi5Y6-121" value="" style="endArrow=none;html=1;rounded=0;exitX=0.497;exitY=0.042;exitDx=0;exitDy=0;exitPerimeter=0;" parent="1" source="ASKlcWjWhNQtN-ibi5Y6-127" edge="1">
          <mxGeometry width="50" height="50" relative="1" as="geometry">
            <mxPoint x="1310" y="920.5" as="sourcePoint" />
            <mxPoint x="1310" y="640.5" as="targetPoint" />
          </mxGeometry>
        </mxCell>
        <mxCell id="ASKlcWjWhNQtN-ibi5Y6-122" value="" style="endArrow=none;html=1;rounded=0;exitX=0.497;exitY=0.042;exitDx=0;exitDy=0;exitPerimeter=0;" parent="1" source="ASKlcWjWhNQtN-ibi5Y6-128" edge="1">
          <mxGeometry width="50" height="50" relative="1" as="geometry">
            <mxPoint x="1430" y="920.5" as="sourcePoint" />
            <mxPoint x="1430" y="640.5" as="targetPoint" />
          </mxGeometry>
        </mxCell>
        <mxCell id="ASKlcWjWhNQtN-ibi5Y6-123" value="&lt;font style=&quot;color: rgb(128, 128, 128);&quot; size=&quot;3&quot;&gt;2025-03-30&lt;/font&gt;" style="text;strokeColor=none;fillColor=none;html=1;fontSize=24;fontStyle=1;verticalAlign=middle;align=center;" parent="1" vertex="1">
          <mxGeometry x="780" y="1200.5" width="100" height="40" as="geometry" />
        </mxCell>
        <mxCell id="ASKlcWjWhNQtN-ibi5Y6-124" value="&lt;font style=&quot;color: rgb(128, 128, 128);&quot; size=&quot;3&quot;&gt;2025-04-06&lt;/font&gt;" style="text;strokeColor=none;fillColor=none;html=1;fontSize=24;fontStyle=1;verticalAlign=middle;align=center;" parent="1" vertex="1">
          <mxGeometry x="900" y="1200.5" width="100" height="40" as="geometry" />
        </mxCell>
        <mxCell id="ASKlcWjWhNQtN-ibi5Y6-125" value="&lt;font style=&quot;color: rgb(128, 128, 128);&quot; size=&quot;3&quot;&gt;2025-04-13&lt;/font&gt;" style="text;strokeColor=none;fillColor=none;html=1;fontSize=24;fontStyle=1;verticalAlign=middle;align=center;" parent="1" vertex="1">
          <mxGeometry x="1020" y="1200.5" width="100" height="40" as="geometry" />
        </mxCell>
        <mxCell id="ASKlcWjWhNQtN-ibi5Y6-126" value="&lt;font style=&quot;color: rgb(128, 128, 128);&quot; size=&quot;3&quot;&gt;2025-04-20&lt;/font&gt;" style="text;strokeColor=none;fillColor=none;html=1;fontSize=24;fontStyle=1;verticalAlign=middle;align=center;" parent="1" vertex="1">
          <mxGeometry x="1140" y="1200.5" width="100" height="40" as="geometry" />
        </mxCell>
        <mxCell id="ASKlcWjWhNQtN-ibi5Y6-127" value="&lt;font style=&quot;color: rgb(128, 128, 128);&quot; size=&quot;3&quot;&gt;2025-04-27&lt;/font&gt;" style="text;strokeColor=none;fillColor=none;html=1;fontSize=24;fontStyle=1;verticalAlign=middle;align=center;" parent="1" vertex="1">
          <mxGeometry x="1260" y="1200.5" width="100" height="40" as="geometry" />
        </mxCell>
        <mxCell id="ASKlcWjWhNQtN-ibi5Y6-128" value="&lt;font style=&quot;color: rgb(128, 128, 128);&quot; size=&quot;3&quot;&gt;2025-05-04&lt;/font&gt;" style="text;strokeColor=none;fillColor=none;html=1;fontSize=24;fontStyle=1;verticalAlign=middle;align=center;" parent="1" vertex="1">
          <mxGeometry x="1380" y="1200.5" width="100" height="40" as="geometry" />
        </mxCell>
        <mxCell id="ASKlcWjWhNQtN-ibi5Y6-129" value="" style="rounded=1;whiteSpace=wrap;html=1;strokeColor=#808080;fillColor=#FF0000;shadow=0;strokeWidth=3;" parent="1" vertex="1">
          <mxGeometry x="490" y="85" width="90" height="30" as="geometry" />
        </mxCell>
        <mxCell id="ASKlcWjWhNQtN-ibi5Y6-131" value="&lt;font size=&quot;3&quot;&gt;WP1: Scoping, Research and Design&lt;/font&gt;" style="text;strokeColor=none;fillColor=none;html=1;fontSize=24;fontStyle=1;verticalAlign=middle;align=center;" parent="1" vertex="1">
          <mxGeometry x="320" y="160" width="280" height="40" as="geometry" />
        </mxCell>
        <mxCell id="ASKlcWjWhNQtN-ibi5Y6-132" value="&lt;font size=&quot;3&quot;&gt;WP2: Development and Testing&lt;/font&gt;" style="text;strokeColor=none;fillColor=none;html=1;fontSize=24;fontStyle=1;verticalAlign=middle;align=center;" parent="1" vertex="1">
          <mxGeometry x="370" y="400" width="200" height="40" as="geometry" />
        </mxCell>
        <mxCell id="ASKlcWjWhNQtN-ibi5Y6-139" value="&lt;h4&gt;&lt;font style=&quot;color: rgb(255, 255, 255);&quot;&gt;Conduct background research&lt;/font&gt;&lt;/h4&gt;" style="rounded=1;whiteSpace=wrap;html=1;strokeColor=#CCCCCC;fillColor=#FF0000;shadow=0;strokeWidth=3;" parent="1" vertex="1">
          <mxGeometry x="480" y="125" width="210" height="30" as="geometry" />
        </mxCell>
        <mxCell id="ASKlcWjWhNQtN-ibi5Y6-141" value="" style="endArrow=none;html=1;rounded=0;exitX=0.502;exitY=0.047;exitDx=0;exitDy=0;exitPerimeter=0;" parent="1" source="ASKlcWjWhNQtN-ibi5Y6-110" edge="1">
          <mxGeometry width="50" height="50" relative="1" as="geometry">
            <mxPoint x="719.29" y="760" as="sourcePoint" />
            <mxPoint x="720" y="80" as="targetPoint" />
          </mxGeometry>
        </mxCell>
        <mxCell id="ASKlcWjWhNQtN-ibi5Y6-140" value="&lt;h4&gt;&lt;font style=&quot;font-size: 12px;&quot;&gt;Finalise project scope and plan&lt;/font&gt;&lt;/h4&gt;" style="text;strokeColor=none;fillColor=none;html=1;fontSize=24;fontStyle=1;verticalAlign=middle;align=left;" parent="1" vertex="1">
          <mxGeometry x="590" y="80" width="230" height="40" as="geometry" />
        </mxCell>
        <mxCell id="ASKlcWjWhNQtN-ibi5Y6-143" value="&lt;h4&gt;&lt;font style=&quot;font-size: 12px;&quot;&gt;Design website architecture&lt;/font&gt;&lt;/h4&gt;" style="text;strokeColor=none;fillColor=none;html=1;fontSize=24;fontStyle=1;verticalAlign=middle;align=left;" parent="1" vertex="1">
          <mxGeometry x="840" y="160" width="170" height="40" as="geometry" />
        </mxCell>
        <mxCell id="ASKlcWjWhNQtN-ibi5Y6-144" value="" style="rounded=1;whiteSpace=wrap;html=1;strokeColor=#CCCCCC;fillColor=#0000FF;shadow=0;strokeWidth=3;" parent="1" vertex="1">
          <mxGeometry x="740" y="205" width="90" height="30" as="geometry" />
        </mxCell>
        <mxCell id="ASKlcWjWhNQtN-ibi5Y6-145" value="&lt;h4&gt;&lt;font style=&quot;font-size: 12px;&quot;&gt;Design blockchain architecture&lt;/font&gt;&lt;/h4&gt;" style="text;strokeColor=none;fillColor=none;html=1;fontSize=24;fontStyle=1;verticalAlign=middle;align=left;" parent="1" vertex="1">
          <mxGeometry x="840" y="200" width="170" height="40" as="geometry" />
        </mxCell>
        <mxCell id="ASKlcWjWhNQtN-ibi5Y6-147" value="&lt;h4&gt;&lt;span style=&quot;font-size: 12px;&quot;&gt;Start writing report sections&lt;/span&gt;&lt;/h4&gt;" style="text;strokeColor=none;fillColor=none;html=1;fontSize=24;fontStyle=1;verticalAlign=middle;align=left;" parent="1" vertex="1">
          <mxGeometry x="950" y="240" width="170" height="40" as="geometry" />
        </mxCell>
        <mxCell id="ASKlcWjWhNQtN-ibi5Y6-148" value="" style="rounded=1;whiteSpace=wrap;html=1;strokeColor=#CCCCCC;fillColor=#0000FF;shadow=0;strokeWidth=3;" parent="1" vertex="1">
          <mxGeometry x="740" y="165" width="90" height="30" as="geometry" />
        </mxCell>
        <mxCell id="ASKlcWjWhNQtN-ibi5Y6-150" value="" style="rounded=1;whiteSpace=wrap;html=1;strokeColor=#CCCCCC;fillColor=#FF0000;shadow=0;strokeWidth=3;" parent="1" vertex="1">
          <mxGeometry x="850" y="245" width="90" height="30" as="geometry" />
        </mxCell>
        <mxCell id="ASKlcWjWhNQtN-ibi5Y6-153" value="&lt;h4&gt;&lt;font style=&quot;color: rgb(255, 255, 255);&quot;&gt;Build Flask web interface&lt;/font&gt;&lt;/h4&gt;" style="rounded=1;whiteSpace=wrap;html=1;strokeColor=#CCCCCC;fillColor=#0000FF;shadow=0;strokeWidth=3;" parent="1" vertex="1">
          <mxGeometry x="740" y="285" width="210" height="30" as="geometry" />
        </mxCell>
        <mxCell id="ASKlcWjWhNQtN-ibi5Y6-154" value="&lt;h4&gt;&lt;font style=&quot;color: rgb(255, 255, 255);&quot;&gt;Write smart contracts&lt;/font&gt;&lt;/h4&gt;" style="rounded=1;whiteSpace=wrap;html=1;strokeColor=#CCCCCC;fillColor=#0000FF;shadow=0;strokeWidth=3;" parent="1" vertex="1">
          <mxGeometry x="740" y="325" width="210" height="30" as="geometry" />
        </mxCell>
        <mxCell id="ASKlcWjWhNQtN-ibi5Y6-155" value="&lt;h4&gt;&lt;font style=&quot;color: rgb(255, 255, 255);&quot;&gt;Begin writing evaluation section&lt;/font&gt;&lt;/h4&gt;" style="rounded=1;whiteSpace=wrap;html=1;strokeColor=#CCCCCC;fillColor=#FF0000;shadow=0;strokeWidth=3;" parent="1" vertex="1">
          <mxGeometry x="735" y="485" width="210" height="30" as="geometry" />
        </mxCell>
        <mxCell id="ASKlcWjWhNQtN-ibi5Y6-156" value="&lt;h4&gt;&lt;font style=&quot;font-size: 12px;&quot;&gt;Integrate cryptographic functions&lt;/font&gt;&lt;/h4&gt;" style="text;strokeColor=none;fillColor=none;html=1;fontSize=24;fontStyle=1;verticalAlign=middle;align=left;" parent="1" vertex="1">
          <mxGeometry x="1070" y="360" width="170" height="40" as="geometry" />
        </mxCell>
        <mxCell id="ASKlcWjWhNQtN-ibi5Y6-157" value="" style="rounded=1;whiteSpace=wrap;html=1;strokeColor=#CCCCCC;fillColor=#0000FF;shadow=0;strokeWidth=3;" parent="1" vertex="1">
          <mxGeometry x="970" y="365" width="90" height="30" as="geometry" />
        </mxCell>
        <mxCell id="ASKlcWjWhNQtN-ibi5Y6-158" value="&lt;h4&gt;&lt;span style=&quot;font-size: 12px;&quot;&gt;Implement secret share redistribution&lt;/span&gt;&lt;/h4&gt;" style="text;strokeColor=none;fillColor=none;html=1;fontSize=24;fontStyle=1;verticalAlign=middle;align=left;" parent="1" vertex="1">
          <mxGeometry x="1190" y="400" width="170" height="40" as="geometry" />
        </mxCell>
        <mxCell id="ASKlcWjWhNQtN-ibi5Y6-159" value="" style="rounded=1;whiteSpace=wrap;html=1;strokeColor=#CCCCCC;fillColor=#0000FF;shadow=0;strokeWidth=3;" parent="1" vertex="1">
          <mxGeometry x="1090" y="405" width="90" height="30" as="geometry" />
        </mxCell>
        <mxCell id="ASKlcWjWhNQtN-ibi5Y6-160" value="" style="rhombus;whiteSpace=wrap;html=1;fillColor=#0000FF;strokeColor=#CCCCCC;strokeWidth=3;" parent="1" vertex="1">
          <mxGeometry x="1210" y="445" width="30" height="30" as="geometry" />
        </mxCell>
        <mxCell id="ASKlcWjWhNQtN-ibi5Y6-161" value="&lt;h4&gt;&lt;span style=&quot;font-size: 12px;&quot;&gt;Deliverable - Web interface and Smart Contracts&lt;/span&gt;&lt;/h4&gt;" style="text;strokeColor=none;fillColor=none;html=1;fontSize=24;fontStyle=1;verticalAlign=middle;align=left;" parent="1" vertex="1">
          <mxGeometry x="1240" y="440" width="170" height="40" as="geometry" />
        </mxCell>
        <mxCell id="ASKlcWjWhNQtN-ibi5Y6-162" value="&lt;h4&gt;&lt;span style=&quot;font-size: 12px;&quot;&gt;Write tests for all components&lt;/span&gt;&lt;/h4&gt;" style="text;strokeColor=none;fillColor=none;html=1;fontSize=24;fontStyle=1;verticalAlign=middle;align=left;" parent="1" vertex="1">
          <mxGeometry x="1310" y="480" width="170" height="40" as="geometry" />
        </mxCell>
        <mxCell id="ASKlcWjWhNQtN-ibi5Y6-163" value="" style="rounded=1;whiteSpace=wrap;html=1;strokeColor=#CCCCCC;fillColor=#00FF00;shadow=0;strokeWidth=3;" parent="1" vertex="1">
          <mxGeometry x="1210" y="485" width="90" height="30" as="geometry" />
        </mxCell>
        <mxCell id="ASKlcWjWhNQtN-ibi5Y6-164" value="&lt;h4&gt;&lt;span style=&quot;font-size: 12px;&quot;&gt;Organise user testing session&lt;/span&gt;&lt;/h4&gt;" style="text;strokeColor=none;fillColor=none;html=1;fontSize=24;fontStyle=1;verticalAlign=middle;align=left;" parent="1" vertex="1">
          <mxGeometry x="700" y="680.5" width="170" height="40" as="geometry" />
        </mxCell>
        <mxCell id="ASKlcWjWhNQtN-ibi5Y6-165" value="" style="rounded=1;whiteSpace=wrap;html=1;strokeColor=#CCCCCC;fillColor=#FFFF00;shadow=0;strokeWidth=3;" parent="1" vertex="1">
          <mxGeometry x="600" y="685.5" width="90" height="30" as="geometry" />
        </mxCell>
        <mxCell id="ASKlcWjWhNQtN-ibi5Y6-166" value="&lt;h4&gt;Conduct user testing&lt;/h4&gt;" style="rounded=1;whiteSpace=wrap;html=1;strokeColor=#CCCCCC;fillColor=#FFFF00;shadow=0;strokeWidth=3;" parent="1" vertex="1">
          <mxGeometry x="640" y="725.5" width="130" height="30" as="geometry" />
        </mxCell>
        <mxCell id="ASKlcWjWhNQtN-ibi5Y6-167" value="&lt;h4&gt;&lt;span style=&quot;font-size: 12px;&quot;&gt;Refine tests and implementation&lt;/span&gt;&lt;/h4&gt;" style="text;strokeColor=none;fillColor=none;html=1;fontSize=24;fontStyle=1;verticalAlign=middle;align=left;" parent="1" vertex="1">
          <mxGeometry x="870" y="760.5" width="170" height="40" as="geometry" />
        </mxCell>
        <mxCell id="ASKlcWjWhNQtN-ibi5Y6-168" value="" style="rounded=1;whiteSpace=wrap;html=1;strokeColor=#CCCCCC;fillColor=#FF0000;shadow=0;strokeWidth=3;" parent="1" vertex="1">
          <mxGeometry x="770" y="765.5" width="90" height="30" as="geometry" />
        </mxCell>
        <mxCell id="ASKlcWjWhNQtN-ibi5Y6-169" value="&lt;h4&gt;&lt;span style=&quot;font-size: 12px;&quot;&gt;Analyse system performance&lt;/span&gt;&lt;/h4&gt;" style="text;strokeColor=none;fillColor=none;html=1;fontSize=24;fontStyle=1;verticalAlign=middle;align=left;" parent="1" vertex="1">
          <mxGeometry x="870" y="840.5" width="170" height="40" as="geometry" />
        </mxCell>
        <mxCell id="ASKlcWjWhNQtN-ibi5Y6-170" value="" style="rounded=1;whiteSpace=wrap;html=1;strokeColor=#CCCCCC;fillColor=#FF0000;shadow=0;strokeWidth=3;" parent="1" vertex="1">
          <mxGeometry x="770" y="845.5" width="90" height="30" as="geometry" />
        </mxCell>
        <mxCell id="ASKlcWjWhNQtN-ibi5Y6-171" value="" style="rhombus;whiteSpace=wrap;html=1;fillColor=#0000FF;strokeColor=#CCCCCC;strokeWidth=3;" parent="1" vertex="1">
          <mxGeometry x="840" y="805.5" width="30" height="30" as="geometry" />
        </mxCell>
        <mxCell id="ASKlcWjWhNQtN-ibi5Y6-172" value="&lt;h4&gt;&lt;span style=&quot;font-size: 12px;&quot;&gt;Deliverable - Crypographic Protocols&lt;/span&gt;&lt;/h4&gt;" style="text;strokeColor=none;fillColor=none;html=1;fontSize=24;fontStyle=1;verticalAlign=middle;align=left;" parent="1" vertex="1">
          <mxGeometry x="870" y="800.5" width="170" height="40" as="geometry" />
        </mxCell>
        <mxCell id="ASKlcWjWhNQtN-ibi5Y6-173" value="&lt;h4&gt;&lt;span style=&quot;font-size: 12px;&quot;&gt;Complete - Technical Documentation&lt;/span&gt;&lt;/h4&gt;" style="text;strokeColor=none;fillColor=none;html=1;fontSize=24;fontStyle=1;verticalAlign=middle;align=left;" parent="1" vertex="1">
          <mxGeometry x="1000" y="880.5" width="170" height="40" as="geometry" />
        </mxCell>
        <mxCell id="ASKlcWjWhNQtN-ibi5Y6-174" value="" style="rounded=1;whiteSpace=wrap;html=1;strokeColor=#CCCCCC;fillColor=#FF0000;shadow=0;strokeWidth=3;" parent="1" vertex="1">
          <mxGeometry x="870" y="885.5" width="120" height="30" as="geometry" />
        </mxCell>
        <mxCell id="ASKlcWjWhNQtN-ibi5Y6-175" value="&lt;h4&gt;&lt;span style=&quot;font-size: 12px;&quot;&gt;Prepare final deliverables&lt;/span&gt;&lt;/h4&gt;" style="text;strokeColor=none;fillColor=none;html=1;fontSize=24;fontStyle=1;verticalAlign=middle;align=left;" parent="1" vertex="1">
          <mxGeometry x="1070" y="960.5" width="170" height="40" as="geometry" />
        </mxCell>
        <mxCell id="ASKlcWjWhNQtN-ibi5Y6-176" value="" style="rounded=1;whiteSpace=wrap;html=1;strokeColor=#CCCCCC;fillColor=#FF0000;shadow=0;strokeWidth=3;" parent="1" vertex="1">
          <mxGeometry x="990" y="965.5" width="70" height="30" as="geometry" />
        </mxCell>
        <mxCell id="ASKlcWjWhNQtN-ibi5Y6-178" value="&lt;h4&gt;&lt;span style=&quot;font-size: 12px;&quot;&gt;Deliverable - Technical Documentation&lt;/span&gt;&lt;/h4&gt;" style="text;strokeColor=none;fillColor=none;html=1;fontSize=24;fontStyle=1;verticalAlign=middle;align=left;" parent="1" vertex="1">
          <mxGeometry x="1010" y="920.5" width="170" height="40" as="geometry" />
        </mxCell>
        <mxCell id="ASKlcWjWhNQtN-ibi5Y6-181" value="&lt;h4&gt;&lt;span style=&quot;font-size: 12px;&quot;&gt;Finalise report and deliverables&lt;/span&gt;&lt;/h4&gt;" style="text;strokeColor=none;fillColor=none;html=1;fontSize=24;fontStyle=1;verticalAlign=middle;align=left;" parent="1" vertex="1">
          <mxGeometry x="1170" y="1000.5" width="170" height="40" as="geometry" />
        </mxCell>
        <mxCell id="ASKlcWjWhNQtN-ibi5Y6-182" value="" style="rounded=1;whiteSpace=wrap;html=1;strokeColor=#CCCCCC;fillColor=#FF0000;shadow=0;strokeWidth=3;" parent="1" vertex="1">
          <mxGeometry x="1080" y="1005.5" width="80" height="30" as="geometry" />
        </mxCell>
        <mxCell id="ASKlcWjWhNQtN-ibi5Y6-185" value="" style="rhombus;whiteSpace=wrap;html=1;fillColor=#FF0000;strokeColor=#CCCCCC;strokeWidth=3;" parent="1" vertex="1">
          <mxGeometry x="1140" y="1045.5" width="30" height="30" as="geometry" />
        </mxCell>
        <mxCell id="ASKlcWjWhNQtN-ibi5Y6-186" value="&lt;h4&gt;&lt;span style=&quot;font-size: 12px;&quot;&gt;Deliverable - Evaluation report&lt;/span&gt;&lt;/h4&gt;" style="text;strokeColor=none;fillColor=none;html=1;fontSize=24;fontStyle=1;verticalAlign=middle;align=left;" parent="1" vertex="1">
          <mxGeometry x="1176" y="1040.5" width="170" height="40" as="geometry" />
        </mxCell>
        <mxCell id="ASKlcWjWhNQtN-ibi5Y6-187" value="&lt;h4&gt;&lt;span style=&quot;font-size: 12px;&quot;&gt;Final refinements after easter&lt;/span&gt;&lt;/h4&gt;" style="text;strokeColor=none;fillColor=none;html=1;fontSize=24;fontStyle=1;verticalAlign=middle;align=left;" parent="1" vertex="1">
          <mxGeometry x="1440" y="1120.5" width="170" height="40" as="geometry" />
        </mxCell>
        <mxCell id="ASKlcWjWhNQtN-ibi5Y6-188" value="" style="rounded=1;whiteSpace=wrap;html=1;strokeColor=#CCCCCC;fillColor=#FF0000;shadow=0;strokeWidth=3;" parent="1" vertex="1">
          <mxGeometry x="1315" y="1125.5" width="110" height="30" as="geometry" />
        </mxCell>
        <mxCell id="ASKlcWjWhNQtN-ibi5Y6-189" value="&lt;h4&gt;&lt;span style=&quot;font-size: 12px;&quot;&gt;Final refinements before easter&lt;/span&gt;&lt;/h4&gt;" style="text;strokeColor=none;fillColor=none;html=1;fontSize=24;fontStyle=1;verticalAlign=middle;align=left;" parent="1" vertex="1">
          <mxGeometry x="820" y="1080.5" width="170" height="40" as="geometry" />
        </mxCell>
        <mxCell id="ASKlcWjWhNQtN-ibi5Y6-190" value="" style="rounded=1;whiteSpace=wrap;html=1;strokeColor=#CCCCCC;fillColor=#FF0000;shadow=0;strokeWidth=3;" parent="1" vertex="1">
          <mxGeometry x="720" y="1085.5" width="100" height="30" as="geometry" />
        </mxCell>
        <mxCell id="ASKlcWjWhNQtN-ibi5Y6-192" value="&lt;h4&gt;Easter Holidays&lt;/h4&gt;" style="rounded=1;whiteSpace=wrap;html=1;strokeColor=#CCCCCC;fillColor=#FF00FF;shadow=0;strokeWidth=3;" parent="1" vertex="1">
          <mxGeometry x="810" y="1164.5" width="490" height="30" as="geometry" />
        </mxCell>
        <mxCell id="ASKlcWjWhNQtN-ibi5Y6-195" value="" style="endArrow=none;html=1;rounded=0;exitX=0.502;exitY=-0.064;exitDx=0;exitDy=0;exitPerimeter=0;" parent="1" source="ASKlcWjWhNQtN-ibi5Y6-203" edge="1">
          <mxGeometry width="50" height="50" relative="1" as="geometry">
            <mxPoint x="1980" y="729" as="sourcePoint" />
            <mxPoint x="1980" y="49" as="targetPoint" />
          </mxGeometry>
        </mxCell>
        <mxCell id="ASKlcWjWhNQtN-ibi5Y6-196" value="" style="endArrow=none;html=1;rounded=0;exitX=0.502;exitY=0.047;exitDx=0;exitDy=0;exitPerimeter=0;" parent="1" source="ASKlcWjWhNQtN-ibi5Y6-205" edge="1">
          <mxGeometry width="50" height="50" relative="1" as="geometry">
            <mxPoint x="2220" y="729" as="sourcePoint" />
            <mxPoint x="2220" y="49" as="targetPoint" />
          </mxGeometry>
        </mxCell>
        <mxCell id="ASKlcWjWhNQtN-ibi5Y6-197" value="" style="endArrow=none;html=1;rounded=0;exitX=0.502;exitY=0.047;exitDx=0;exitDy=0;exitPerimeter=0;" parent="1" source="ASKlcWjWhNQtN-ibi5Y6-206" edge="1">
          <mxGeometry width="50" height="50" relative="1" as="geometry">
            <mxPoint x="2340" y="729" as="sourcePoint" />
            <mxPoint x="2340" y="49" as="targetPoint" />
          </mxGeometry>
        </mxCell>
        <mxCell id="ASKlcWjWhNQtN-ibi5Y6-198" value="" style="endArrow=none;html=1;rounded=0;exitX=0.502;exitY=0.047;exitDx=0;exitDy=0;exitPerimeter=0;" parent="1" source="ASKlcWjWhNQtN-ibi5Y6-207" edge="1">
          <mxGeometry width="50" height="50" relative="1" as="geometry">
            <mxPoint x="2460" y="729" as="sourcePoint" />
            <mxPoint x="2460" y="49" as="targetPoint" />
          </mxGeometry>
        </mxCell>
        <mxCell id="ASKlcWjWhNQtN-ibi5Y6-199" value="" style="endArrow=none;html=1;rounded=0;exitX=0.502;exitY=0.047;exitDx=0;exitDy=0;exitPerimeter=0;" parent="1" source="ASKlcWjWhNQtN-ibi5Y6-208" edge="1">
          <mxGeometry width="50" height="50" relative="1" as="geometry">
            <mxPoint x="2580" y="729" as="sourcePoint" />
            <mxPoint x="2580" y="49" as="targetPoint" />
          </mxGeometry>
        </mxCell>
        <mxCell id="ASKlcWjWhNQtN-ibi5Y6-200" value="" style="endArrow=none;html=1;rounded=0;exitX=0.513;exitY=0.042;exitDx=0;exitDy=0;exitPerimeter=0;" parent="1" source="ASKlcWjWhNQtN-ibi5Y6-209" edge="1">
          <mxGeometry width="50" height="50" relative="1" as="geometry">
            <mxPoint x="2700" y="729" as="sourcePoint" />
            <mxPoint x="2700" y="49" as="targetPoint" />
          </mxGeometry>
        </mxCell>
        <mxCell id="ASKlcWjWhNQtN-ibi5Y6-201" value="" style="endArrow=none;html=1;rounded=0;exitX=0.497;exitY=0.042;exitDx=0;exitDy=0;exitPerimeter=0;" parent="1" source="ASKlcWjWhNQtN-ibi5Y6-210" edge="1">
          <mxGeometry width="50" height="50" relative="1" as="geometry">
            <mxPoint x="2820" y="729" as="sourcePoint" />
            <mxPoint x="2820" y="49" as="targetPoint" />
          </mxGeometry>
        </mxCell>
        <mxCell id="ASKlcWjWhNQtN-ibi5Y6-202" value="New COMP5530 Gantt Chart" style="text;strokeColor=none;fillColor=none;html=1;fontSize=24;fontStyle=1;verticalAlign=middle;align=center;" parent="1" vertex="1">
          <mxGeometry x="1750" y="-10" width="400" height="40" as="geometry" />
        </mxCell>
        <mxCell id="ASKlcWjWhNQtN-ibi5Y6-203" value="&lt;p&gt;&lt;font style=&quot;color: rgb(128, 128, 128);&quot; size=&quot;3&quot;&gt;2025-02-02&lt;/font&gt;&lt;/p&gt;" style="text;strokeColor=none;fillColor=none;html=1;fontSize=24;fontStyle=1;verticalAlign=middle;align=center;" parent="1" vertex="1">
          <mxGeometry x="1930" y="734.5" width="100" height="40" as="geometry" />
        </mxCell>
        <mxCell id="ASKlcWjWhNQtN-ibi5Y6-204" value="&lt;font style=&quot;color: rgb(128, 128, 128);&quot; size=&quot;3&quot;&gt;2025-02-09&lt;/font&gt;" style="text;strokeColor=none;fillColor=none;html=1;fontSize=24;fontStyle=1;verticalAlign=middle;align=center;" parent="1" vertex="1">
          <mxGeometry x="2050" y="734.5" width="100" height="40" as="geometry" />
        </mxCell>
        <mxCell id="ASKlcWjWhNQtN-ibi5Y6-205" value="&lt;font style=&quot;color: rgb(128, 128, 128);&quot; size=&quot;3&quot;&gt;2025-02-16&lt;/font&gt;" style="text;strokeColor=none;fillColor=none;html=1;fontSize=24;fontStyle=1;verticalAlign=middle;align=center;" parent="1" vertex="1">
          <mxGeometry x="2170" y="734.5" width="100" height="40" as="geometry" />
        </mxCell>
        <mxCell id="ASKlcWjWhNQtN-ibi5Y6-206" value="&lt;font style=&quot;color: rgb(128, 128, 128);&quot; size=&quot;3&quot;&gt;2025-02-23&lt;/font&gt;" style="text;strokeColor=none;fillColor=none;html=1;fontSize=24;fontStyle=1;verticalAlign=middle;align=center;" parent="1" vertex="1">
          <mxGeometry x="2290" y="734.5" width="100" height="40" as="geometry" />
        </mxCell>
        <mxCell id="ASKlcWjWhNQtN-ibi5Y6-207" value="&lt;font style=&quot;color: rgb(128, 128, 128);&quot; size=&quot;3&quot;&gt;2025-03-02&lt;/font&gt;" style="text;strokeColor=none;fillColor=none;html=1;fontSize=24;fontStyle=1;verticalAlign=middle;align=center;" parent="1" vertex="1">
          <mxGeometry x="2410" y="734.5" width="100" height="40" as="geometry" />
        </mxCell>
        <mxCell id="ASKlcWjWhNQtN-ibi5Y6-208" value="&lt;font style=&quot;color: rgb(128, 128, 128);&quot; size=&quot;3&quot;&gt;2025-03-09&lt;/font&gt;" style="text;strokeColor=none;fillColor=none;html=1;fontSize=24;fontStyle=1;verticalAlign=middle;align=center;" parent="1" vertex="1">
          <mxGeometry x="2530" y="734.5" width="100" height="40" as="geometry" />
        </mxCell>
        <mxCell id="ASKlcWjWhNQtN-ibi5Y6-209" value="&lt;font style=&quot;color: rgb(128, 128, 128);&quot; size=&quot;3&quot;&gt;2025-03-16&lt;/font&gt;" style="text;strokeColor=none;fillColor=none;html=1;fontSize=24;fontStyle=1;verticalAlign=middle;align=center;" parent="1" vertex="1">
          <mxGeometry x="2650" y="734.5" width="100" height="40" as="geometry" />
        </mxCell>
        <mxCell id="ASKlcWjWhNQtN-ibi5Y6-210" value="&lt;font style=&quot;color: rgb(128, 128, 128);&quot; size=&quot;3&quot;&gt;2025-03-23&lt;/font&gt;" style="text;strokeColor=none;fillColor=none;html=1;fontSize=24;fontStyle=1;verticalAlign=middle;align=center;" parent="1" vertex="1">
          <mxGeometry x="2770" y="734.5" width="100" height="40" as="geometry" />
        </mxCell>
        <mxCell id="ASKlcWjWhNQtN-ibi5Y6-223" value="" style="rounded=1;whiteSpace=wrap;html=1;strokeColor=#808080;fillColor=#FF0000;shadow=0;strokeWidth=3;" parent="1" vertex="1">
          <mxGeometry x="1870" y="54" width="90" height="30" as="geometry" />
        </mxCell>
        <mxCell id="ASKlcWjWhNQtN-ibi5Y6-224" value="&lt;font size=&quot;3&quot;&gt;WP1: Scoping, Research and Design&lt;/font&gt;" style="text;strokeColor=none;fillColor=none;html=1;fontSize=24;fontStyle=1;verticalAlign=middle;align=center;" parent="1" vertex="1">
          <mxGeometry x="1610" y="129" width="280" height="40" as="geometry" />
        </mxCell>
        <mxCell id="ASKlcWjWhNQtN-ibi5Y6-230" value="&lt;h4&gt;&lt;font style=&quot;color: rgb(255, 255, 255);&quot;&gt;Conduct background research&lt;/font&gt;&lt;/h4&gt;" style="rounded=1;whiteSpace=wrap;html=1;strokeColor=#CCCCCC;fillColor=#FF0000;shadow=0;strokeWidth=3;" parent="1" vertex="1">
          <mxGeometry x="1860" y="94" width="210" height="30" as="geometry" />
        </mxCell>
        <mxCell id="ASKlcWjWhNQtN-ibi5Y6-231" value="" style="endArrow=none;html=1;rounded=0;exitX=0.502;exitY=0.047;exitDx=0;exitDy=0;exitPerimeter=0;" parent="1" source="ASKlcWjWhNQtN-ibi5Y6-204" edge="1">
          <mxGeometry width="50" height="50" relative="1" as="geometry">
            <mxPoint x="2099.29" y="729" as="sourcePoint" />
            <mxPoint x="2100" y="49" as="targetPoint" />
          </mxGeometry>
        </mxCell>
        <mxCell id="ASKlcWjWhNQtN-ibi5Y6-232" value="&lt;h4&gt;&lt;font style=&quot;font-size: 12px;&quot;&gt;Finalise project scope and plan&lt;/font&gt;&lt;/h4&gt;" style="text;strokeColor=none;fillColor=none;html=1;fontSize=24;fontStyle=1;verticalAlign=middle;align=left;" parent="1" vertex="1">
          <mxGeometry x="1970" y="49" width="230" height="40" as="geometry" />
        </mxCell>
        <mxCell id="ASKlcWjWhNQtN-ibi5Y6-236" value="&lt;h4&gt;&lt;span style=&quot;font-size: 12px;&quot;&gt;start write up questionaire for user testing&lt;/span&gt;&lt;/h4&gt;" style="text;strokeColor=none;fillColor=none;html=1;fontSize=24;fontStyle=1;verticalAlign=middle;align=left;" parent="1" vertex="1">
          <mxGeometry x="2100" y="174" width="170" height="40" as="geometry" />
        </mxCell>
        <mxCell id="ASKlcWjWhNQtN-ibi5Y6-237" value="&lt;h4 style=&quot;font-size: 24px; text-align: left; text-wrap-mode: nowrap;&quot;&gt;&lt;font style=&quot;font-size: 12px; color: rgb(255, 255, 255);&quot;&gt;Design website architecture&lt;/font&gt;&lt;/h4&gt;" style="rounded=1;whiteSpace=wrap;html=1;strokeColor=#CCCCCC;fillColor=#0000FF;shadow=0;strokeWidth=3;" parent="1" vertex="1">
          <mxGeometry x="1900" y="134" width="310" height="30" as="geometry" />
        </mxCell>
        <mxCell id="ASKlcWjWhNQtN-ibi5Y6-238" value="" style="rounded=1;whiteSpace=wrap;html=1;strokeColor=#CCCCCC;fillColor=#FFFF00;shadow=0;strokeWidth=3;" parent="1" vertex="1">
          <mxGeometry x="1990" y="179" width="100" height="30" as="geometry" />
        </mxCell>
        <mxCell id="ASKlcWjWhNQtN-ibi5Y6-239" value="&lt;h4&gt;&lt;font style=&quot;color: rgb(255, 255, 255);&quot;&gt;Build system prototype&lt;/font&gt;&lt;/h4&gt;" style="rounded=1;whiteSpace=wrap;html=1;strokeColor=#CCCCCC;fillColor=#0000FF;shadow=0;strokeWidth=3;" parent="1" vertex="1">
          <mxGeometry x="1900" y="219" width="370" height="30" as="geometry" />
        </mxCell>
        <mxCell id="ASKlcWjWhNQtN-ibi5Y6-240" value="&lt;h4&gt;&lt;br&gt;&lt;/h4&gt;" style="rounded=1;whiteSpace=wrap;html=1;strokeColor=#CCCCCC;fillColor=#0000FF;shadow=0;strokeWidth=3;" parent="1" vertex="1">
          <mxGeometry x="1990" y="299" width="100" height="30" as="geometry" />
        </mxCell>
        <mxCell id="ASKlcWjWhNQtN-ibi5Y6-243" value="&lt;h4 style=&quot;font-size: 24px; text-align: left; text-wrap-mode: nowrap;&quot;&gt;&lt;font style=&quot;font-size: 12px; color: rgb(255, 255, 255);&quot;&gt;Integrate cryptographic functions&lt;/font&gt;&lt;/h4&gt;" style="rounded=1;whiteSpace=wrap;html=1;strokeColor=#CCCCCC;fillColor=#0000FF;shadow=0;strokeWidth=3;" parent="1" vertex="1">
          <mxGeometry x="1990" y="338" width="280" height="30" as="geometry" />
        </mxCell>
        <mxCell id="ASKlcWjWhNQtN-ibi5Y6-275" value="&lt;h4&gt;&lt;span style=&quot;font-size: 12px;&quot;&gt;Start work on Vue.js frontend&lt;/span&gt;&lt;/h4&gt;" style="text;strokeColor=none;fillColor=none;html=1;fontSize=24;fontStyle=1;verticalAlign=middle;align=left;" parent="1" vertex="1">
          <mxGeometry x="2100" y="294" width="170" height="40" as="geometry" />
        </mxCell>
        <mxCell id="ASKlcWjWhNQtN-ibi5Y6-276" value="" style="rounded=1;whiteSpace=wrap;html=1;strokeColor=#CCCCCC;fillColor=#FF0000;shadow=0;strokeWidth=3;" parent="1" vertex="1">
          <mxGeometry x="1990" y="259" width="100" height="30" as="geometry" />
        </mxCell>
        <mxCell id="ASKlcWjWhNQtN-ibi5Y6-277" value="&lt;h4&gt;&lt;span style=&quot;font-size: 12px;&quot;&gt;start write up of final report&lt;/span&gt;&lt;/h4&gt;" style="text;strokeColor=none;fillColor=none;html=1;fontSize=24;fontStyle=1;verticalAlign=middle;align=left;" parent="1" vertex="1">
          <mxGeometry x="2100" y="254" width="170" height="40" as="geometry" />
        </mxCell>
        <mxCell id="ASKlcWjWhNQtN-ibi5Y6-278" value="" style="rhombus;whiteSpace=wrap;html=1;fillColor=#0000FF;strokeColor=#CCCCCC;strokeWidth=3;" parent="1" vertex="1">
          <mxGeometry x="2250" y="424" width="30" height="30" as="geometry" />
        </mxCell>
        <mxCell id="ASKlcWjWhNQtN-ibi5Y6-279" value="&lt;h4&gt;&lt;span style=&quot;font-size: 12px;&quot;&gt;Deliverable - Prototype solution&lt;/span&gt;&lt;/h4&gt;" style="text;strokeColor=none;fillColor=none;html=1;fontSize=24;fontStyle=1;verticalAlign=middle;align=left;" parent="1" vertex="1">
          <mxGeometry x="2280" y="419" width="170" height="40" as="geometry" />
        </mxCell>
        <mxCell id="ASKlcWjWhNQtN-ibi5Y6-280" value="&lt;h4&gt;&lt;br&gt;&lt;/h4&gt;" style="rounded=1;whiteSpace=wrap;html=1;strokeColor=#CCCCCC;fillColor=#0000FF;shadow=0;strokeWidth=3;" parent="1" vertex="1">
          <mxGeometry x="2110" y="384" width="100" height="30" as="geometry" />
        </mxCell>
        <mxCell id="ASKlcWjWhNQtN-ibi5Y6-281" value="&lt;h4&gt;&lt;span style=&quot;font-size: 12px;&quot;&gt;Start write up of FastAPI backend&lt;/span&gt;&lt;/h4&gt;" style="text;strokeColor=none;fillColor=none;html=1;fontSize=24;fontStyle=1;verticalAlign=middle;align=left;" parent="1" vertex="1">
          <mxGeometry x="2210" y="379" width="170" height="40" as="geometry" />
        </mxCell>
        <mxCell id="ASKlcWjWhNQtN-ibi5Y6-286" value="&lt;h4&gt;&lt;br&gt;&lt;/h4&gt;" style="rounded=1;whiteSpace=wrap;html=1;strokeColor=#CCCCCC;fillColor=#0000FF;shadow=0;strokeWidth=3;" parent="1" vertex="1">
          <mxGeometry x="2350" y="474" width="100" height="30" as="geometry" />
        </mxCell>
        <mxCell id="ASKlcWjWhNQtN-ibi5Y6-287" value="&lt;h4&gt;&lt;span style=&quot;font-size: 12px;&quot;&gt;Fully integrate the backend, frontend and smart contract&lt;/span&gt;&lt;/h4&gt;" style="text;strokeColor=none;fillColor=none;html=1;fontSize=24;fontStyle=1;verticalAlign=middle;align=left;" parent="1" vertex="1">
          <mxGeometry x="2450" y="469" width="170" height="40" as="geometry" />
        </mxCell>
        <mxCell id="ASKlcWjWhNQtN-ibi5Y6-288" value="&lt;h4&gt;&lt;br&gt;&lt;/h4&gt;" style="rounded=1;whiteSpace=wrap;html=1;strokeColor=#CCCCCC;fillColor=#00FF00;shadow=0;strokeWidth=3;" parent="1" vertex="1">
          <mxGeometry x="2350" y="514" width="100" height="30" as="geometry" />
        </mxCell>
        <mxCell id="ASKlcWjWhNQtN-ibi5Y6-289" value="&lt;h4&gt;&lt;span style=&quot;font-size: 12px;&quot;&gt;Start writing end-to-end tests&lt;/span&gt;&lt;/h4&gt;" style="text;strokeColor=none;fillColor=none;html=1;fontSize=24;fontStyle=1;verticalAlign=middle;align=left;" parent="1" vertex="1">
          <mxGeometry x="2450" y="509" width="170" height="40" as="geometry" />
        </mxCell>
        <mxCell id="ASKlcWjWhNQtN-ibi5Y6-290" value="" style="rhombus;whiteSpace=wrap;html=1;fillColor=#0000FF;strokeColor=#CCCCCC;strokeWidth=3;" parent="1" vertex="1">
          <mxGeometry x="2470" y="634" width="30" height="30" as="geometry" />
        </mxCell>
        <mxCell id="ASKlcWjWhNQtN-ibi5Y6-291" value="&lt;h4&gt;&lt;span style=&quot;font-size: 12px;&quot;&gt;Deliverable - Working system&lt;/span&gt;&lt;/h4&gt;" style="text;strokeColor=none;fillColor=none;html=1;fontSize=24;fontStyle=1;verticalAlign=middle;align=left;" parent="1" vertex="1">
          <mxGeometry x="2500" y="629" width="170" height="40" as="geometry" />
        </mxCell>
        <mxCell id="ASKlcWjWhNQtN-ibi5Y6-292" value="&lt;h4 style=&quot;font-size: 24px; text-align: left; text-wrap-mode: nowrap;&quot;&gt;&lt;span style=&quot;font-size: 12px;&quot;&gt;&lt;font style=&quot;color: rgb(0, 0, 0);&quot;&gt;work on user testing functionality&lt;/font&gt;&lt;/span&gt;&lt;/h4&gt;" style="rounded=1;whiteSpace=wrap;html=1;strokeColor=#CCCCCC;fillColor=#FFFF00;shadow=0;strokeWidth=3;" parent="1" vertex="1">
          <mxGeometry x="2470" y="675" width="370" height="30" as="geometry" />
        </mxCell>
        <mxCell id="ASKlcWjWhNQtN-ibi5Y6-294" value="&lt;h4&gt;&lt;br&gt;&lt;/h4&gt;" style="rounded=1;whiteSpace=wrap;html=1;strokeColor=#CCCCCC;fillColor=#00FF00;shadow=0;strokeWidth=3;" parent="1" vertex="1">
          <mxGeometry x="2350" y="554" width="100" height="30" as="geometry" />
        </mxCell>
        <mxCell id="ASKlcWjWhNQtN-ibi5Y6-295" value="&lt;h4&gt;&lt;span style=&quot;font-size: 12px;&quot;&gt;Start writing front-end tests&lt;/span&gt;&lt;/h4&gt;" style="text;strokeColor=none;fillColor=none;html=1;fontSize=24;fontStyle=1;verticalAlign=middle;align=left;" parent="1" vertex="1">
          <mxGeometry x="2450" y="549" width="170" height="40" as="geometry" />
        </mxCell>
        <mxCell id="ASKlcWjWhNQtN-ibi5Y6-296" value="&lt;h4&gt;&lt;br&gt;&lt;/h4&gt;" style="rounded=1;whiteSpace=wrap;html=1;strokeColor=#CCCCCC;fillColor=#00FF00;shadow=0;strokeWidth=3;" parent="1" vertex="1">
          <mxGeometry x="2350" y="594" width="100" height="30" as="geometry" />
        </mxCell>
        <mxCell id="ASKlcWjWhNQtN-ibi5Y6-297" value="&lt;h4&gt;&lt;span style=&quot;font-size: 12px;&quot;&gt;Start writing back-end tests&lt;/span&gt;&lt;/h4&gt;" style="text;strokeColor=none;fillColor=none;html=1;fontSize=24;fontStyle=1;verticalAlign=middle;align=left;" parent="1" vertex="1">
          <mxGeometry x="2450" y="589" width="170" height="40" as="geometry" />
        </mxCell>
        <mxCell id="ASKlcWjWhNQtN-ibi5Y6-324" value="&lt;font size=&quot;3&quot;&gt;WP2: Development and Testing&lt;/font&gt;" style="text;strokeColor=none;fillColor=none;html=1;fontSize=24;fontStyle=1;verticalAlign=middle;align=center;" parent="1" vertex="1">
          <mxGeometry x="1650" y="214" width="200" height="40" as="geometry" />
        </mxCell>
        <mxCell id="ASKlcWjWhNQtN-ibi5Y6-325" value="&lt;font size=&quot;3&quot;&gt;WP3: User Testing&lt;/font&gt;" style="text;strokeColor=none;fillColor=none;html=1;fontSize=24;fontStyle=1;verticalAlign=middle;align=center;" parent="1" vertex="1">
          <mxGeometry x="1710" y="674" width="200" height="40" as="geometry" />
        </mxCell>
        <mxCell id="ASKlcWjWhNQtN-ibi5Y6-329" value="" style="rounded=0;whiteSpace=wrap;html=1;fillColor=#FF0000;" parent="1" vertex="1">
          <mxGeometry x="2190" y="-10" width="40" height="40" as="geometry" />
        </mxCell>
        <mxCell id="ASKlcWjWhNQtN-ibi5Y6-331" value="&lt;h4&gt;&lt;span style=&quot;font-size: 12px;&quot;&gt;Report work&lt;/span&gt;&lt;/h4&gt;" style="text;strokeColor=none;fillColor=none;html=1;fontSize=24;fontStyle=1;verticalAlign=middle;align=left;" parent="1" vertex="1">
          <mxGeometry x="2230" y="-10" width="80" height="40" as="geometry" />
        </mxCell>
        <mxCell id="ASKlcWjWhNQtN-ibi5Y6-332" value="" style="rounded=0;whiteSpace=wrap;html=1;fillColor=#0000FF;" parent="1" vertex="1">
          <mxGeometry x="2350" y="-10" width="40" height="40" as="geometry" />
        </mxCell>
        <mxCell id="ASKlcWjWhNQtN-ibi5Y6-333" value="&lt;h4&gt;&lt;span style=&quot;font-size: 12px;&quot;&gt;System devleopment&lt;/span&gt;&lt;/h4&gt;" style="text;strokeColor=none;fillColor=none;html=1;fontSize=24;fontStyle=1;verticalAlign=middle;align=left;" parent="1" vertex="1">
          <mxGeometry x="2390" y="-10" width="80" height="40" as="geometry" />
        </mxCell>
        <mxCell id="ASKlcWjWhNQtN-ibi5Y6-334" value="" style="rounded=0;whiteSpace=wrap;html=1;fillColor=#FFFF00;" parent="1" vertex="1">
          <mxGeometry x="2545" y="-9" width="40" height="40" as="geometry" />
        </mxCell>
        <mxCell id="ASKlcWjWhNQtN-ibi5Y6-335" value="&lt;h4&gt;&lt;span style=&quot;font-size: 12px;&quot;&gt;User testing&lt;/span&gt;&lt;/h4&gt;" style="text;strokeColor=none;fillColor=none;html=1;fontSize=24;fontStyle=1;verticalAlign=middle;align=left;" parent="1" vertex="1">
          <mxGeometry x="2585" y="-9" width="80" height="40" as="geometry" />
        </mxCell>
        <mxCell id="ASKlcWjWhNQtN-ibi5Y6-336" value="" style="rounded=0;whiteSpace=wrap;html=1;fillColor=#FF00FF;" parent="1" vertex="1">
          <mxGeometry x="2790" y="-10" width="40" height="40" as="geometry" />
        </mxCell>
        <mxCell id="ASKlcWjWhNQtN-ibi5Y6-337" value="&lt;h4&gt;&lt;span style=&quot;font-size: 12px;&quot;&gt;Holidays&lt;/span&gt;&lt;/h4&gt;" style="text;strokeColor=none;fillColor=none;html=1;fontSize=24;fontStyle=1;verticalAlign=middle;align=left;" parent="1" vertex="1">
          <mxGeometry x="2830" y="-10" width="80" height="40" as="geometry" />
        </mxCell>
        <mxCell id="ASKlcWjWhNQtN-ibi5Y6-338" value="" style="rounded=0;whiteSpace=wrap;html=1;fillColor=#00FF00;" parent="1" vertex="1">
          <mxGeometry x="2680" y="-10" width="40" height="40" as="geometry" />
        </mxCell>
        <mxCell id="ASKlcWjWhNQtN-ibi5Y6-339" value="&lt;h4&gt;&lt;span style=&quot;font-size: 12px;&quot;&gt;Testing&lt;/span&gt;&lt;/h4&gt;" style="text;strokeColor=none;fillColor=none;html=1;fontSize=24;fontStyle=1;verticalAlign=middle;align=left;" parent="1" vertex="1">
          <mxGeometry x="2720" y="-10" width="80" height="40" as="geometry" />
        </mxCell>
        <mxCell id="ASKlcWjWhNQtN-ibi5Y6-340" value="" style="rounded=0;whiteSpace=wrap;html=1;fillColor=#FF0000;" parent="1" vertex="1">
          <mxGeometry x="850" y="29" width="40" height="40" as="geometry" />
        </mxCell>
        <mxCell id="ASKlcWjWhNQtN-ibi5Y6-341" value="&lt;h4&gt;&lt;span style=&quot;font-size: 12px;&quot;&gt;Report work&lt;/span&gt;&lt;/h4&gt;" style="text;strokeColor=none;fillColor=none;html=1;fontSize=24;fontStyle=1;verticalAlign=middle;align=left;" parent="1" vertex="1">
          <mxGeometry x="890" y="29" width="80" height="40" as="geometry" />
        </mxCell>
        <mxCell id="ASKlcWjWhNQtN-ibi5Y6-342" value="" style="rounded=0;whiteSpace=wrap;html=1;fillColor=#0000FF;" parent="1" vertex="1">
          <mxGeometry x="1010" y="29" width="40" height="40" as="geometry" />
        </mxCell>
        <mxCell id="ASKlcWjWhNQtN-ibi5Y6-343" value="&lt;h4&gt;&lt;span style=&quot;font-size: 12px;&quot;&gt;System devleopment&lt;/span&gt;&lt;/h4&gt;" style="text;strokeColor=none;fillColor=none;html=1;fontSize=24;fontStyle=1;verticalAlign=middle;align=left;" parent="1" vertex="1">
          <mxGeometry x="1050" y="29" width="80" height="40" as="geometry" />
        </mxCell>
        <mxCell id="ASKlcWjWhNQtN-ibi5Y6-344" value="" style="rounded=0;whiteSpace=wrap;html=1;fillColor=#FFFF00;" parent="1" vertex="1">
          <mxGeometry x="1205" y="30" width="40" height="40" as="geometry" />
        </mxCell>
        <mxCell id="ASKlcWjWhNQtN-ibi5Y6-345" value="&lt;h4&gt;&lt;span style=&quot;font-size: 12px;&quot;&gt;User testing&lt;/span&gt;&lt;/h4&gt;" style="text;strokeColor=none;fillColor=none;html=1;fontSize=24;fontStyle=1;verticalAlign=middle;align=left;" parent="1" vertex="1">
          <mxGeometry x="1245" y="30" width="80" height="40" as="geometry" />
        </mxCell>
        <mxCell id="ASKlcWjWhNQtN-ibi5Y6-346" value="" style="rounded=0;whiteSpace=wrap;html=1;fillColor=#FF00FF;" parent="1" vertex="1">
          <mxGeometry x="1450" y="29" width="40" height="40" as="geometry" />
        </mxCell>
        <mxCell id="ASKlcWjWhNQtN-ibi5Y6-347" value="&lt;h4&gt;&lt;span style=&quot;font-size: 12px;&quot;&gt;Holidays&lt;/span&gt;&lt;/h4&gt;" style="text;strokeColor=none;fillColor=none;html=1;fontSize=24;fontStyle=1;verticalAlign=middle;align=left;" parent="1" vertex="1">
          <mxGeometry x="1490" y="29" width="80" height="40" as="geometry" />
        </mxCell>
        <mxCell id="ASKlcWjWhNQtN-ibi5Y6-348" value="" style="rounded=0;whiteSpace=wrap;html=1;fillColor=#00FF00;" parent="1" vertex="1">
          <mxGeometry x="1340" y="29" width="40" height="40" as="geometry" />
        </mxCell>
        <mxCell id="ASKlcWjWhNQtN-ibi5Y6-349" value="&lt;h4&gt;&lt;span style=&quot;font-size: 12px;&quot;&gt;Testing&lt;/span&gt;&lt;/h4&gt;" style="text;strokeColor=none;fillColor=none;html=1;fontSize=24;fontStyle=1;verticalAlign=middle;align=left;" parent="1" vertex="1">
          <mxGeometry x="1380" y="29" width="80" height="40" as="geometry" />
        </mxCell>
        <mxCell id="ASKlcWjWhNQtN-ibi5Y6-177" value="" style="rhombus;whiteSpace=wrap;html=1;fillColor=#FF0000;strokeColor=#CCCCCC;strokeWidth=3;" parent="1" vertex="1">
          <mxGeometry x="974" y="925.5" width="30" height="30" as="geometry" />
        </mxCell>
        <mxCell id="yYoHjE_zOzeYWuOCdc8e-1" value="" style="endArrow=none;html=1;rounded=0;exitX=0.513;exitY=0.042;exitDx=0;exitDy=0;exitPerimeter=0;" edge="1" parent="1" source="yYoHjE_zOzeYWuOCdc8e-2">
          <mxGeometry width="50" height="50" relative="1" as="geometry">
            <mxPoint x="1320" y="760" as="sourcePoint" />
            <mxPoint x="1320" y="80" as="targetPoint" />
          </mxGeometry>
        </mxCell>
        <mxCell id="yYoHjE_zOzeYWuOCdc8e-2" value="&lt;font style=&quot;color: rgb(128, 128, 128);&quot; size=&quot;3&quot;&gt;2025-03-16&lt;/font&gt;" style="text;strokeColor=none;fillColor=none;html=1;fontSize=24;fontStyle=1;verticalAlign=middle;align=center;" vertex="1" parent="1">
          <mxGeometry x="1270" y="545" width="100" height="40" as="geometry" />
        </mxCell>
        <mxCell id="yYoHjE_zOzeYWuOCdc8e-3" value="&lt;font size=&quot;3&quot;&gt;WP3: User Testing&lt;/font&gt;" style="text;strokeColor=none;fillColor=none;html=1;fontSize=24;fontStyle=1;verticalAlign=middle;align=center;" vertex="1" parent="1">
          <mxGeometry x="350" y="675.5" width="200" height="40" as="geometry" />
        </mxCell>
        <mxCell id="yYoHjE_zOzeYWuOCdc8e-4" value="&lt;font size=&quot;3&quot;&gt;WP4: Evaluation and Finalizing&lt;/font&gt;" style="text;strokeColor=none;fillColor=none;html=1;fontSize=24;fontStyle=1;verticalAlign=middle;align=center;" vertex="1" parent="1">
          <mxGeometry x="340" y="835.5" width="200" height="40" as="geometry" />
        </mxCell>
        <mxCell id="yYoHjE_zOzeYWuOCdc8e-5" value="&lt;font size=&quot;3&quot;&gt;WP5: final refinements&lt;/font&gt;" style="text;strokeColor=none;fillColor=none;html=1;fontSize=24;fontStyle=1;verticalAlign=middle;align=center;" vertex="1" parent="1">
          <mxGeometry x="360" y="1075.5" width="200" height="40" as="geometry" />
        </mxCell>
        <mxCell id="yYoHjE_zOzeYWuOCdc8e-6" value="" style="endArrow=none;html=1;rounded=0;exitX=0.497;exitY=0.042;exitDx=0;exitDy=0;exitPerimeter=0;" edge="1" parent="1">
          <mxGeometry width="50" height="50" relative="1" as="geometry">
            <mxPoint x="1980" y="1201.5" as="sourcePoint" />
            <mxPoint x="1980" y="789" as="targetPoint" />
          </mxGeometry>
        </mxCell>
        <mxCell id="yYoHjE_zOzeYWuOCdc8e-7" value="" style="endArrow=none;html=1;rounded=0;exitX=0.497;exitY=0.042;exitDx=0;exitDy=0;exitPerimeter=0;" edge="1" parent="1" source="yYoHjE_zOzeYWuOCdc8e-12">
          <mxGeometry width="50" height="50" relative="1" as="geometry">
            <mxPoint x="2100" y="919.5" as="sourcePoint" />
            <mxPoint x="2100" y="789" as="targetPoint" />
          </mxGeometry>
        </mxCell>
        <mxCell id="yYoHjE_zOzeYWuOCdc8e-8" value="" style="endArrow=none;html=1;rounded=0;exitX=0.497;exitY=0.042;exitDx=0;exitDy=0;exitPerimeter=0;" edge="1" parent="1" source="yYoHjE_zOzeYWuOCdc8e-13">
          <mxGeometry width="50" height="50" relative="1" as="geometry">
            <mxPoint x="2220" y="919.5" as="sourcePoint" />
            <mxPoint x="2220" y="789" as="targetPoint" />
          </mxGeometry>
        </mxCell>
        <mxCell id="yYoHjE_zOzeYWuOCdc8e-9" value="" style="endArrow=none;html=1;rounded=0;exitX=0.497;exitY=0.042;exitDx=0;exitDy=0;exitPerimeter=0;" edge="1" parent="1" source="yYoHjE_zOzeYWuOCdc8e-14">
          <mxGeometry width="50" height="50" relative="1" as="geometry">
            <mxPoint x="2340" y="919.5" as="sourcePoint" />
            <mxPoint x="2340" y="789" as="targetPoint" />
          </mxGeometry>
        </mxCell>
        <mxCell id="yYoHjE_zOzeYWuOCdc8e-10" value="" style="endArrow=none;html=1;rounded=0;exitX=0.497;exitY=0.042;exitDx=0;exitDy=0;exitPerimeter=0;" edge="1" parent="1" source="yYoHjE_zOzeYWuOCdc8e-15">
          <mxGeometry width="50" height="50" relative="1" as="geometry">
            <mxPoint x="2460" y="919.5" as="sourcePoint" />
            <mxPoint x="2460" y="789" as="targetPoint" />
          </mxGeometry>
        </mxCell>
        <mxCell id="yYoHjE_zOzeYWuOCdc8e-11" value="" style="endArrow=none;html=1;rounded=0;exitX=0.497;exitY=0.042;exitDx=0;exitDy=0;exitPerimeter=0;" edge="1" parent="1" source="yYoHjE_zOzeYWuOCdc8e-17">
          <mxGeometry width="50" height="50" relative="1" as="geometry">
            <mxPoint x="2700" y="919.5" as="sourcePoint" />
            <mxPoint x="2700" y="789" as="targetPoint" />
          </mxGeometry>
        </mxCell>
        <mxCell id="yYoHjE_zOzeYWuOCdc8e-12" value="&lt;font style=&quot;color: rgb(128, 128, 128);&quot; size=&quot;3&quot;&gt;2025-03-30&lt;/font&gt;" style="text;strokeColor=none;fillColor=none;html=1;fontSize=24;fontStyle=1;verticalAlign=middle;align=center;" vertex="1" parent="1">
          <mxGeometry x="2050" y="1199.5" width="100" height="40" as="geometry" />
        </mxCell>
        <mxCell id="yYoHjE_zOzeYWuOCdc8e-13" value="&lt;font style=&quot;color: rgb(128, 128, 128);&quot; size=&quot;3&quot;&gt;2025-04-06&lt;/font&gt;" style="text;strokeColor=none;fillColor=none;html=1;fontSize=24;fontStyle=1;verticalAlign=middle;align=center;" vertex="1" parent="1">
          <mxGeometry x="2170" y="1199.5" width="100" height="40" as="geometry" />
        </mxCell>
        <mxCell id="yYoHjE_zOzeYWuOCdc8e-14" value="&lt;font style=&quot;color: rgb(128, 128, 128);&quot; size=&quot;3&quot;&gt;2025-04-13&lt;/font&gt;" style="text;strokeColor=none;fillColor=none;html=1;fontSize=24;fontStyle=1;verticalAlign=middle;align=center;" vertex="1" parent="1">
          <mxGeometry x="2290" y="1199.5" width="100" height="40" as="geometry" />
        </mxCell>
        <mxCell id="yYoHjE_zOzeYWuOCdc8e-15" value="&lt;font style=&quot;color: rgb(128, 128, 128);&quot; size=&quot;3&quot;&gt;2025-04-20&lt;/font&gt;" style="text;strokeColor=none;fillColor=none;html=1;fontSize=24;fontStyle=1;verticalAlign=middle;align=center;" vertex="1" parent="1">
          <mxGeometry x="2410" y="1199.5" width="100" height="40" as="geometry" />
        </mxCell>
        <mxCell id="yYoHjE_zOzeYWuOCdc8e-16" value="&lt;font style=&quot;color: rgb(128, 128, 128);&quot; size=&quot;3&quot;&gt;2025-04-27&lt;/font&gt;" style="text;strokeColor=none;fillColor=none;html=1;fontSize=24;fontStyle=1;verticalAlign=middle;align=center;" vertex="1" parent="1">
          <mxGeometry x="2530" y="1199.5" width="100" height="40" as="geometry" />
        </mxCell>
        <mxCell id="yYoHjE_zOzeYWuOCdc8e-17" value="&lt;font style=&quot;color: rgb(128, 128, 128);&quot; size=&quot;3&quot;&gt;2025-05-04&lt;/font&gt;" style="text;strokeColor=none;fillColor=none;html=1;fontSize=24;fontStyle=1;verticalAlign=middle;align=center;" vertex="1" parent="1">
          <mxGeometry x="2650" y="1199.5" width="100" height="40" as="geometry" />
        </mxCell>
        <mxCell id="yYoHjE_zOzeYWuOCdc8e-18" value="&lt;h4&gt;Easter Holidays&lt;/h4&gt;" style="rounded=1;whiteSpace=wrap;html=1;strokeColor=#CCCCCC;fillColor=#FF00FF;shadow=0;strokeWidth=3;" vertex="1" parent="1">
          <mxGeometry x="2050" y="904.5" width="520" height="30" as="geometry" />
        </mxCell>
        <mxCell id="yYoHjE_zOzeYWuOCdc8e-19" value="&lt;h4&gt;&lt;br&gt;&lt;/h4&gt;" style="rounded=1;whiteSpace=wrap;html=1;strokeColor=#CCCCCC;fillColor=#FFFF00;shadow=0;strokeWidth=3;" vertex="1" parent="1">
          <mxGeometry x="2352" y="1025.5" width="100" height="30" as="geometry" />
        </mxCell>
        <mxCell id="yYoHjE_zOzeYWuOCdc8e-20" value="" style="rhombus;whiteSpace=wrap;html=1;fillColor=#FFFF00;strokeColor=#CCCCCC;strokeWidth=3;" vertex="1" parent="1">
          <mxGeometry x="2130" y="944.5" width="30" height="30" as="geometry" />
        </mxCell>
        <mxCell id="yYoHjE_zOzeYWuOCdc8e-21" value="&lt;h4&gt;&lt;span style=&quot;font-size: 12px;&quot;&gt;Deliverable - Working user testing&lt;/span&gt;&lt;/h4&gt;" style="text;strokeColor=none;fillColor=none;html=1;fontSize=24;fontStyle=1;verticalAlign=middle;align=left;" vertex="1" parent="1">
          <mxGeometry x="2160" y="939.5" width="170" height="40" as="geometry" />
        </mxCell>
        <mxCell id="yYoHjE_zOzeYWuOCdc8e-22" value="&lt;h4 style=&quot;font-size: 24px; text-align: left; text-wrap-mode: nowrap;&quot;&gt;&lt;span style=&quot;font-size: 12px;&quot;&gt;Organise user testing session&lt;/span&gt;&lt;/h4&gt;" style="rounded=1;whiteSpace=wrap;html=1;strokeColor=#CCCCCC;fillColor=#FFFF00;shadow=0;strokeWidth=3;" vertex="1" parent="1">
          <mxGeometry x="2150" y="984.5" width="180" height="30" as="geometry" />
        </mxCell>
        <mxCell id="yYoHjE_zOzeYWuOCdc8e-23" value="&lt;h4&gt;&lt;span style=&quot;font-size: 12px;&quot;&gt;Conduct user testing&lt;/span&gt;&lt;/h4&gt;" style="text;strokeColor=none;fillColor=none;html=1;fontSize=24;fontStyle=1;verticalAlign=middle;align=left;" vertex="1" parent="1">
          <mxGeometry x="2460" y="1020.5" width="170" height="40" as="geometry" />
        </mxCell>
        <mxCell id="yYoHjE_zOzeYWuOCdc8e-24" value="" style="endArrow=none;html=1;rounded=0;" edge="1" parent="1" source="yYoHjE_zOzeYWuOCdc8e-16">
          <mxGeometry width="50" height="50" relative="1" as="geometry">
            <mxPoint x="2579.41" y="1206.5" as="sourcePoint" />
            <mxPoint x="2579" y="789" as="targetPoint" />
          </mxGeometry>
        </mxCell>
        <mxCell id="yYoHjE_zOzeYWuOCdc8e-25" value="" style="endArrow=none;html=1;rounded=0;exitX=0.497;exitY=0.042;exitDx=0;exitDy=0;exitPerimeter=0;" edge="1" parent="1" source="yYoHjE_zOzeYWuOCdc8e-26">
          <mxGeometry width="50" height="50" relative="1" as="geometry">
            <mxPoint x="2820" y="919.5" as="sourcePoint" />
            <mxPoint x="2820" y="789" as="targetPoint" />
          </mxGeometry>
        </mxCell>
        <mxCell id="yYoHjE_zOzeYWuOCdc8e-26" value="&lt;font style=&quot;color: rgb(128, 128, 128);&quot; size=&quot;3&quot;&gt;2025-05-11&lt;/font&gt;" style="text;strokeColor=none;fillColor=none;html=1;fontSize=24;fontStyle=1;verticalAlign=middle;align=center;" vertex="1" parent="1">
          <mxGeometry x="2770" y="1199.5" width="100" height="40" as="geometry" />
        </mxCell>
        <mxCell id="yYoHjE_zOzeYWuOCdc8e-27" value="&lt;h4 style=&quot;font-size: 24px; text-align: left; text-wrap-mode: nowrap;&quot;&gt;&lt;span style=&quot;font-size: 12px;&quot;&gt;Finalise the report&lt;/span&gt;&lt;/h4&gt;" style="rounded=1;whiteSpace=wrap;html=1;strokeColor=#CCCCCC;fillColor=#FF0000;shadow=0;strokeWidth=3;" vertex="1" parent="1">
          <mxGeometry x="2472" y="1065.5" width="328" height="30" as="geometry" />
        </mxCell>
        <mxCell id="yYoHjE_zOzeYWuOCdc8e-28" value="&lt;h4 style=&quot;font-size: 24px; text-align: left; text-wrap-mode: nowrap;&quot;&gt;&lt;span style=&quot;font-size: 12px;&quot;&gt;Finalise testing&lt;/span&gt;&lt;/h4&gt;" style="rounded=1;whiteSpace=wrap;html=1;strokeColor=#CCCCCC;fillColor=#00FF00;shadow=0;strokeWidth=3;" vertex="1" parent="1">
          <mxGeometry x="2472" y="1105.5" width="328" height="30" as="geometry" />
        </mxCell>
        <mxCell id="yYoHjE_zOzeYWuOCdc8e-29" value="&lt;h4 style=&quot;font-size: 24px; text-align: left; text-wrap-mode: nowrap;&quot;&gt;&lt;span style=&quot;font-size: 12px;&quot;&gt;&lt;font style=&quot;color: rgb(255, 255, 255);&quot;&gt;Finalise system development&lt;/font&gt;&lt;/span&gt;&lt;/h4&gt;" style="rounded=1;whiteSpace=wrap;html=1;strokeColor=#CCCCCC;fillColor=#0000FF;shadow=0;strokeWidth=3;" vertex="1" parent="1">
          <mxGeometry x="2472" y="1145.5" width="328" height="30" as="geometry" />
        </mxCell>
        <mxCell id="yYoHjE_zOzeYWuOCdc8e-30" value="&lt;font style=&quot;color: rgb(128, 128, 128);&quot; size=&quot;3&quot;&gt;2025-03-23&lt;/font&gt;" style="text;strokeColor=none;fillColor=none;html=1;fontSize=24;fontStyle=1;verticalAlign=middle;align=center;" vertex="1" parent="1">
          <mxGeometry x="1930" y="1199.5" width="100" height="40" as="geometry" />
        </mxCell>
        <mxCell id="yYoHjE_zOzeYWuOCdc8e-31" value="&lt;h4 style=&quot;font-size: 24px; text-align: left; text-wrap-mode: nowrap;&quot;&gt;&lt;span style=&quot;font-size: 12px;&quot;&gt;&lt;font style=&quot;color: rgb(0, 0, 0);&quot;&gt;work on user testing functionality&lt;/font&gt;&lt;/span&gt;&lt;/h4&gt;" style="rounded=1;whiteSpace=wrap;html=1;strokeColor=#CCCCCC;fillColor=#FFFF00;shadow=0;strokeWidth=3;" vertex="1" parent="1">
          <mxGeometry x="1940" y="849" width="200" height="30" as="geometry" />
        </mxCell>
        <mxCell id="yYoHjE_zOzeYWuOCdc8e-32" value="&lt;font size=&quot;3&quot;&gt;WP3: User Testing&lt;/font&gt;" style="text;strokeColor=none;fillColor=none;html=1;fontSize=24;fontStyle=1;verticalAlign=middle;align=center;" vertex="1" parent="1">
          <mxGeometry x="1720" y="839" width="200" height="40" as="geometry" />
        </mxCell>
        <mxCell id="yYoHjE_zOzeYWuOCdc8e-33" value="&lt;font size=&quot;3&quot;&gt;WP4: Evaluation and Finalizing&lt;/font&gt;" style="text;strokeColor=none;fillColor=none;html=1;fontSize=24;fontStyle=1;verticalAlign=middle;align=center;" vertex="1" parent="1">
          <mxGeometry x="1710" y="1055.5" width="200" height="40" as="geometry" />
        </mxCell>
      </root>
    </mxGraphModel>
  </diagram>
</mxfile>
